Coordinates
version=1
nRows=4
nColumns=63
inDegrees=yes

Units are S.I. units (second, meters, Newtons, ...)
If the header above contains a line with 'inDegrees', this indicates whether rotational values are in degrees (yes) or radians (no).

endheader
time	pelvis_tilt	pelvis_list	pelvis_rotation	pelvis_tx	pelvis_ty	pelvis_tz	hip_flexion_r	hip_adduction_r	hip_rotation_r	knee_angle_r	knee_angle_r_beta	ankle_angle_r	subtalar_angle_r	mtp_angle_r	hip_flexion_l	hip_adduction_l	hip_rotation_l	knee_angle_l	knee_angle_l_beta	ankle_angle_l	subtalar_angle_l	mtp_angle_l	L5_S1_Flex_Ext	L5_S1_Lat_Bending	L5_S1_axial_rotation	L4_L5_Flex_Ext	L4_L5_Lat_Bending	L4_L5_axial_rotation	L3_L4_Flex_Ext	L3_L4_Lat_Bending	L3_L4_axial_rotation	L2_L3_Flex_Ext	L2_L3_Lat_Bending	L2_L3_axial_rotation	L1_L2_Flex_Ext	L1_L2_Lat_Bending	L1_L2_axial_rotation	L1_T12_Flex_Ext	L1_T12_Lat_Bending	L1_T12_axial_rotation	Abs_r3	Abs_r2	Abs_r1	Abs_t1	Abs_t2	neck_flexion	neck_bending	neck_rotation	arm_flex_r	arm_add_r	arm_rot_r	elbow_flex_r	pro_sup_r	wrist_flex_r	wrist_dev_r	arm_flex_l	arm_add_l	arm_rot_l	elbow_flex_l	pro_sup_l	wrist_flex_l	wrist_dev_l
      1.30000000	     -0.17130752	     -3.85987352	     88.62166812	      0.29832210	      0.77024815	      0.85631022	      7.02492660	      3.24793999	     14.75628736	     21.30817339	      0.37189778	     29.59531425	    -13.02453193	      0.00000000	      3.34888235	     -1.14344470	     -5.25903933	     16.02760869	      0.27973454	     33.09881000	     -8.38760566	      0.00000000	     -0.09595010	     -0.27004663	     -3.10616805	     -0.17818894	     -0.35916202	     -3.30030356	     -0.15763642	     -0.65659138	     -3.30030356	     -0.10966137	     -0.65659138	     -2.71789705	     -0.08909927	     -0.55067909	     -2.52376154	     -0.05482589	     -0.41830223	     -2.32962604	     -0.68536199	     -3.05482152	    -17.27557486	      0.00000000	      0.00000000	     18.73979591	     13.03785487	      4.71855816	     -8.55803012	    -49.23114999	   -116.47148450	    122.37155717	     84.98596764	     -0.38359384	     -1.09709833	      4.38258123	     -6.61424681	    179.67356504	      0.68024935	      6.11905286	     -2.08880964	     -7.97349481
      1.31666667	     -0.08982533	     -3.93362147	     88.81567900	      0.29724260	      0.76979470	      0.85433036	      6.90658519	      3.26220984	     14.73580311	     21.04998518	      0.36739155	     30.09672475	    -12.81196236	      0.00000000	      3.27233653	     -1.11524569	     -4.84271398	     15.81025876	      0.27594107	     33.31797344	     -8.66152174	      0.00000000	     -0.07210105	     -0.25099664	     -3.11468617	     -0.13389887	     -0.33382553	     -3.30935406	     -0.11845482	     -0.61027323	     -3.30935406	     -0.08240430	     -0.61027323	     -2.72535040	     -0.06695304	     -0.51183235	     -2.53068251	     -0.04119854	     -0.38879380	     -2.33601463	     -0.51501062	     -2.83932420	    -17.32295007	      0.00000000	      0.00000000	     18.95100329	     12.98833072	      4.62737885	     -2.18739308	    -48.38016438	   -116.72175202	    122.70107281	     79.66027641	     -0.14567292	     -2.29800289	      3.96657951	     -6.38481526	    179.43443427	      0.71164158	      5.26784449	     -1.71690436	     -8.08903823
      1.33333333	      0.11189295	     -3.98533603	     88.86745075	      0.29605688	      0.76909762	      0.85295479	      6.83820335	      3.41007965	     14.82493853	     20.89030058	      0.36460453	     30.60010423	    -12.56553405	      0.00000000	      3.29812600	     -1.21580364	     -4.57243318	     15.78466560	      0.27549439	     33.84100324	     -8.77009408	      0.00000000	     -0.07331029	     -0.20920663	     -3.09218544	     -0.13614453	     -0.27824481	     -3.28544703	     -0.12044147	     -0.50866499	     -3.28544703	     -0.08378633	     -0.50866499	     -2.70566226	     -0.06807593	     -0.42661415	     -2.51240067	     -0.04188950	     -0.32406106	     -2.31913908	     -0.52364804	     -2.36658720	    -17.19780777	      0.00000000	      0.00000000	     19.66266747	     13.11537153	      4.83695095	      4.92697281	    -46.74838901	   -115.88998151	    124.18364128	     73.20501277	      1.58934306	     -1.41153719	      3.70340461	     -6.12607646	    178.65110430	      0.72986235	      4.54543506	     -0.93766751	     -8.39211806
      1.35000000	      0.26784573	     -4.19507933	     89.32514191	      0.29418716	      0.76794173	      0.85127469	      6.85411935	      3.43897132	     14.51058170	     20.65199727	      0.36044535	     31.05128362	    -12.34739466	      0.00000000	      3.51379400	     -1.26867977	     -4.16485644	     15.78250495	      0.27545668	     34.61252002	     -8.29210311	      0.00000000	     -0.03765663	     -0.15388197	     -3.09950747	     -0.06993212	     -0.20466302	     -3.29322669	     -0.06186607	     -0.37414862	     -3.29322669	     -0.04303776	     -0.37414862	     -2.71206904	     -0.03496794	     -0.31379611	     -2.51834982	     -0.02151700	     -0.23836317	     -2.32463060	     -0.26897751	     -1.74074359	    -17.23853070	      0.00000000	      0.00000000	     19.65866486	     13.45106640	      6.74404191	     12.14045891	    -44.78457384	   -115.86311311	    126.10618698	     62.35517840	      8.63715718	      4.44784349	      3.25436906	     -5.80735029	    175.27739238	      0.80022213	      4.40273323	     -0.36946444	     -8.63235952
